# xmcd
#
# Track frame offsets:
#	150
#	12300
#	25200
#	40125
#	51375
#	62550
#	78000
#	88800
#	103125
#	118125
#	136875
#	150900
#	165000
#	183750
#	201675
#	214500
#	232500
#
# Disc length: 3272 seconds
#
# Revision: 2
# Processed by: cddbd v1.5.2PL0 Copyright (c) Steve Scherf et al.
# Submitted via: EasyCDDAExtractor 2010.3.0.0
#
DISCID=ce0cc611
DTITLE=Monrning Fellows en Concert - Joy to the World
DYEAR=2012
DGENRE=Gospel
TTITLE0=Joy to the World
TTITLE1=Hush
TTITLE2=Never turn back
TTITLE3=I got a home in that rock
TTITLE4=I gave my heart to Jesus
TTITLE5=Thine be the glory
TTITLE6=Religion is a fortune
TTITLE7=My Lord, what a morning
TTITLE8=Balm in Gilead
TTITLE9=Precious Lord
TTITLE10=Everytime I feel the spirit
TTITLE11=Through it all
TTITLE12=Come all ye faithful
TTITLE13=Shepherds
TTITLE14=Shadrack
TTITLE15=Peace in the valley
TTITLE16=Swing down chariot
EXTD=
EXTT0=
EXTT1=
EXTT2=
EXTT3=
EXTT4=
EXTT5=
EXTT6=
EXTT7=
EXTT8=
EXTT9=
EXTT10=
EXTT11=
EXTT12=
EXTT13=
EXTT14=
EXTT15=
EXTT16=
PLAYORDER=
